<svg xmlns="http://www.w3.org/2000/svg" width="80" height="32" fill="none"><g clip-path="url(#a)"><mask id="b" width="67" height="31" x="13" y="0" maskUnits="userSpaceOnUse" style="mask-type:alpha"><path fill="#fff" d="M13.867 30.732H79.92V.86H13.867v29.872Z"/></mask><g fill-rule="evenodd" clip-rule="evenodd" mask="url(#b)"><path fill="#032B76" d="M79.106 15.793c-4.01 8.241-21.748 14.95-39.484 14.95-17.754 0-28.95-6.709-24.94-14.95C18.674 7.585 36.428.86 54.166.86c17.753 0 28.948 6.725 24.94 14.933Z"/><path fill="#0A0A08" d="M53.768 1.178c17.25 0 28.106 6.518 24.183 14.487-3.908 7.986-21.173 14.505-38.389 14.505-17.249 0-28.107-6.519-24.2-14.505C17.9 10.528 25.932 6.02 35.927 3.432c.71-.193 1.437-.35 2.164-.525a73.318 73.318 0 0 1 15.677-1.729Z"/><path fill="#969998" d="M53.51 1.612c17.032 0 27.774 6.29 23.927 13.969-3.847 7.709-20.864 13.985-37.881 13.985-17.033 0-27.775-6.276-23.927-13.985 3.832-7.679 20.864-13.97 37.88-13.97Z"/></g><path fill="#0A0A08" fill-rule="evenodd" d="M50.795 2.924c15.387 0 25.073 5.627 21.573 12.506-3.486 6.894-18.888 12.521-34.246 12.521-15.387 0-25.073-5.627-21.588-12.52 2.263-4.436 9.429-8.329 18.345-10.56.633-.168 1.282-.303 1.931-.454a67.469 67.469 0 0 1 13.985-1.493Z" clip-rule="evenodd"/><path fill="#0D5DB8" fill-rule="evenodd" d="M69.842 9.787c.739 1.227.875 2.607.29 4.054-.547 1.096-1.175 1.977-2.111 2.845-4.855 4.486-15.78 7.831-26.69 7.831-12.864 0-20.976-4.649-18.045-10.348 2.014-3.923 8.837-7.49 17.01-9.252.96-.207 1.938-.37 2.93-.518a50.693 50.693 0 0 0-5.654.873c-9.06 2-16.743 5.227-18.979 9.697-3.241 6.499 5.744 11.798 20.015 11.798 11.693 0 23.403-3.552 29.028-8.423a12.533 12.533 0 0 0 1.962-2.142c.241-.333.452-.67.629-1.01 1.006-1.955.814-3.806-.385-5.405Z" clip-rule="evenodd"/><path fill="#fff" fill-rule="evenodd" d="M8.918 14.407c-.273.428-.546.745-.813.94l-.01.009c-.309.242-.712.365-1.2.365-.317 0-.535-.063-.595-.17-.007-.017-.15-.41.292-1.832.292-.9.632-1.544 1.01-1.912.47-.47.976-.69 1.589-.69.192 0 .353.03.45.083.073.042.13.074.153.34l.09 1.037h4.89c-.307.407-.57.845-.78 1.304H9.252l-.334.526Zm11.856.301c-.182.581-.418 1.003-.68 1.22-.268.214-.494.31-.73.31a.464.464 0 0 1-.1-.008c-.01-.065-.026-.292.137-.813.156-.53.385-.932.662-1.163.254-.203.488-.293.761-.293.033 0 .057.002.073.004.01.072.017.286-.123.743Zm11.68-.011c-.15.513-.353.895-.569 1.077-.176.148-.325.22-.456.22h-.035c.003-.09.023-.27.116-.57.202-.656.43-.938.585-1.06.178-.145.332-.221.493-.244-.01.109-.041.29-.131.565l-.004.012Zm34.365-5.104 1.297-4.157L61.45 8.2l-.17.07-.412 1.322h-1.322l-.054.173a4.045 4.045 0 0 0-1.681-.37c-.45 0-.877.066-1.27.197h-5.22l-.989 3.156a5.265 5.265 0 0 0-.01-.395c-.048-.685-.288-1.292-.678-1.708-.486-.555-1.17-.912-2.036-1.063-.64-.128-1.51-.188-2.737-.188-.717 0-1.395.049-2.071.15-.765.117-1.326.272-1.765.486-.651.283-1.19.626-1.603 1.02-.364.332-.696.755-1.015 1.29a4.555 4.555 0 0 0-.299-.961c-.423-.906-1.375-1.985-3.51-1.985-.527 0-1.025.066-1.52.203l.002-.005h-5.703l-.82 2.622a4.12 4.12 0 0 0-.374-.784c-.859-1.35-2.445-2.036-4.715-2.036-1.862 0-3.52.499-4.925 1.483a8.62 8.62 0 0 0-.738.581v-.017c0-1.934-.526-3.302-1.606-4.183-.941-.803-2.329-1.194-4.242-1.194-2.283 0-4.293.615-5.974 1.83-1.671 1.217-2.86 2.951-3.533 5.154-.545 1.72-.606 3.197-.182 4.39.455 1.246 1.207 2.133 2.235 2.637.924.463 2.184.697 3.743.697 1.298 0 2.433-.182 3.373-.542a8.492 8.492 0 0 0 2.674-1.6c.375-.339.79-.787 1.168-1.266a4.119 4.119 0 0 0 1.072 1.991c.93.93 2.31 1.401 4.106 1.401 1.887 0 3.564-.503 4.984-1.497.352-.247.681-.517.98-.806l-1.692 5.406h5.965l1.081-3.432c.52.219 1.12.33 1.782.33 1.389 0 2.688-.465 3.863-1.383a6.66 6.66 0 0 0 .938-.901c.107.432.318.826.628 1.17.656.75 1.685 1.114 3.147 1.114.964 0 1.867-.145 2.686-.43.134-.047.272-.101.41-.161l.13.392H53.84l1.162-3.714c.484-1.537.927-2.15 1.147-2.379.212-.19.355-.216.477-.216.014 0 .146.004.468.146l.802.355.382-.46 1.121.003-.492 1.574c-.385 1.172-.515 2.008-.408 2.63.11.76.521 1.39 1.155 1.773.54.332 1.323.486 2.462.486.83 0 1.758-.099 2.756-.294l.485-.095.258-.05.999-4.899-1.787.524.512-1.648h1.959l1.469-4.702h-1.947Z" clip-rule="evenodd"/><path fill="#0A0A08" fill-rule="evenodd" d="m9.417 14.182-.245.386c-.293.46-.592.805-.892 1.025-.363.285-.829.43-1.386.43-.448 0-.737-.11-.86-.329-.04-.07-.217-.5.268-2.064.308-.95.675-1.637 1.09-2.04.52-.521 1.109-.775 1.798-.775.25 0 .45.041.596.121.172.097.277.223.308.577l.065.762h5.256a6.801 6.801 0 0 0-1.226 1.907H9.417Zm11.645.614c-.204.648-.465 1.107-.776 1.363-.324.26-.617.38-.924.38-.272 0-.328-.095-.365-.159-.014-.024-.134-.257.116-1.054.174-.591.428-1.03.755-1.303.31-.248.614-.364.955-.364.251 0 .295.074.342.156.006.008.13.219-.103.98Zm10.159.54c.178-.58.416-.998.69-1.21.262-.215.51-.314.78-.314.138 0 .147.016.179.075.028.046.063.31-.128.894-.17.578-.399 1.001-.664 1.224-.233.196-.445.29-.65.29-.246 0-.287-.068-.314-.113-.001-.002-.095-.193.107-.847Zm6.711-.149c.122-.43.204-.85.245-1.25l1.583.16c-.575.196-1.044.437-1.422.733-.144.11-.279.23-.406.357Zm29.142-1.194 1.28-4.099h-1.946l1.227-3.933-6.11 2.535-.436 1.398h-1.322l-.093.298c-.623-.333-1.233-.495-1.864-.495-.436 0-.845.066-1.22.197h-5.049l-2.994 9.564-.027-.17c-.067-.403-.074-.604-.068-.7.007-.102.044-.318.178-.77l1.197-3.833c.168-.505.23-1.032.192-1.611-.042-.619-.255-1.16-.599-1.524-.439-.504-1.067-.83-1.863-.97-.627-.125-1.481-.183-2.687-.183-.703 0-1.365.047-2.027.146-.737.113-1.272.26-1.68.461-.623.27-1.135.594-1.523.965-.412.376-.787.88-1.144 1.541l-.289.534c0-.67-.122-1.288-.367-1.844-.384-.823-1.257-1.803-3.233-1.803-.689 0-1.34.122-1.981.372l.053-.175h-5.071l-1.114 3.557a3.827 3.827 0 0 0-.56-1.863c-.797-1.255-2.297-1.891-4.457-1.891-1.799 0-3.398.48-4.752 1.428a7.937 7.937 0 0 0-1.213 1.045v-.728c0-1.838-.489-3.13-1.493-3.948-.889-.759-2.214-1.127-4.053-1.127-2.219 0-4.169.596-5.797 1.772C2.552 9.317 1.4 10.999.748 13.137.223 14.795.16 16.209.562 17.338c.426 1.168 1.127 1.999 2.082 2.467.884.442 2.1.666 3.611.666 1.26 0 2.36-.176 3.265-.521a8.218 8.218 0 0 0 2.584-1.548 10.838 10.838 0 0 0 1.575-1.827 3.79 3.79 0 0 0 1.08 2.573c.868.867 2.177 1.308 3.89 1.308 1.823 0 3.442-.486 4.81-1.443a7.325 7.325 0 0 0 1.89-1.902l-2.019 6.447h5.334l1.117-3.547c.068.034.136.066.205.096.505.231 1.098.349 1.762.349 1.32 0 2.557-.444 3.677-1.318.508-.399.961-.887 1.352-1.455-.04.825.304 1.404.624 1.759.597.682 1.554 1.014 2.923 1.014.93 0 1.8-.139 2.587-.412a6.32 6.32 0 0 0 .687-.293l.17.506h9.849l1.095-3.501c.482-1.53.934-2.21 1.224-2.506.23-.209.443-.302.688-.302.06 0 .238.017.59.172l.594.263.327-.394 1.673.004-.615 1.964c-.37 1.13-.497 1.923-.399 2.492.098.673.457 1.228 1.013 1.564.493.302 1.226.443 2.307.443.81 0 1.719-.097 2.698-.289l.546-.107.858-4.21-1.326.389c-.19.055-.362.1-.514.133l.738-2.379h1.96Z" clip-rule="evenodd"/><path fill="#fff" fill-rule="evenodd" d="M13.615 15.016c-.41.942-1.308 2.083-2.068 2.767a7.362 7.362 0 0 1-2.311 1.384c-.836.319-1.84.471-2.98.471-1.4 0-2.479-.198-3.239-.578-.775-.38-1.323-1.05-1.672-2.007-.336-.943-.275-2.175.197-3.665.608-1.99 1.657-3.512 3.117-4.576C6.134 7.748 7.898 7.2 9.966 7.2c1.611 0 2.782.304 3.512.927.989.806 1.201 2.13 1.201 3.315h-3.755c-.046-.532-.243-.958-.73-1.231-.274-.153-.608-.229-1.004-.229-.897 0-1.703.335-2.387 1.02-.517.501-.943 1.292-1.293 2.371-.41 1.323-.486 2.236-.197 2.737.274.488.806.745 1.581.745.76 0 1.399-.213 1.901-.608.395-.289.76-.73 1.08-1.231h3.74ZM21.857 15.046c-.259.821-.608 1.4-1.05 1.763-.456.366-.927.563-1.445.563-.5 0-.866-.197-1.079-.563-.228-.379-.213-.942.03-1.719.229-.774.578-1.337 1.034-1.717.456-.365.944-.547 1.476-.547.486 0 .836.181 1.049.547.228.365.212.928-.015 1.673Zm3.375-3.011c-.639-1.004-1.885-1.505-3.755-1.505-1.628 0-3.057.426-4.273 1.277-1.232.867-2.054 1.961-2.464 3.284-.456 1.43-.243 2.586.609 3.467.699.7 1.793 1.065 3.3 1.065 1.671 0 3.116-.441 4.333-1.293 1.216-.851 2.022-1.946 2.448-3.284.38-1.186.304-2.19-.198-3.011ZM33.542 15.016c-.227.775-.547 1.307-.927 1.626-.38.32-.775.487-1.186.487-.471 0-.821-.167-1.019-.502-.212-.334-.197-.851.015-1.536.229-.744.548-1.292.96-1.61.41-.336.834-.503 1.306-.503.41 0 .715.152.898.486.197.335.182.852-.047 1.552Zm3.544-3.164c-.411-.881-1.232-1.322-2.478-1.322-.624 0-1.232.12-1.84.38-.441.182-.974.547-1.612 1.094l.395-1.277h-3.33l-3.756 11.998h3.589l1.308-4.152c.243.35.577.609.973.776.395.182.866.274 1.413.274 1.125 0 2.19-.38 3.163-1.14.989-.776 1.703-1.871 2.16-3.316.41-1.323.41-2.417.015-3.315ZM44.902 15.822c-.138.41-.306.76-.534 1.018-.227.259-.532.471-.927.654a2.82 2.82 0 0 1-1.201.274c-.38 0-.639-.091-.775-.259-.152-.167-.183-.38-.092-.638.062-.229.228-.426.487-.609.243-.182.76-.35 1.536-.532a26.785 26.785 0 0 0 1.672-.441l-.166.533Zm4.287-3.391c-.03-.441-.167-.791-.396-1.034-.319-.366-.79-.594-1.398-.7-.608-.121-1.46-.167-2.524-.167-.67 0-1.292.046-1.9.136-.594.091-1.096.214-1.46.396-.533.228-.973.502-1.308.821-.35.32-.669.76-.973 1.323l3.298.334c.26-.38.518-.638.792-.775.35-.168.806-.258 1.399-.258.455 0 .745.075.881.243.123.167.123.456 0 .867-.5.151-.958.288-1.383.395-.44.09-1.354.274-2.767.532-1.187.197-2.053.516-2.6.943a3.207 3.207 0 0 0-1.126 1.627c-.227.715-.12 1.307.304 1.779.427.487 1.187.73 2.297.73.835 0 1.61-.122 2.31-.365.517-.183 1.08-.487 1.672-.897-.03.243-.044.425-.044.547 0 .122.029.288.105.516h3.33c-.06-.364-.09-.668-.076-.895.016-.23.092-.549.213-.959l1.203-3.847c.135-.41.181-.836.15-1.293ZM52.154 10.727h3.33l-.44 1.414c.517-.608.988-1.033 1.399-1.261.41-.244.866-.35 1.368-.35.532 0 1.049.152 1.58.456l-1.839 2.372c-.38-.168-.684-.243-.927-.243-.47 0-.883.182-1.263.532-.516.517-1.003 1.46-1.443 2.858l-.913 2.92h-3.574l2.722-8.698ZM66.31 7.413l-1.034 3.314h1.947l-.76 2.434H64.5l-.958 3.086c-.122.365-.152.608-.122.73.06.183.228.29.531.29.26 0 .654-.077 1.172-.23l-.471 2.312c-.927.182-1.78.274-2.539.274-.896 0-1.521-.106-1.87-.32-.351-.212-.563-.547-.624-.973-.077-.44.046-1.14.365-2.113l.957-3.056H59.62l.76-2.434h1.322l.503-1.611 4.105-1.703Z" clip-rule="evenodd"/></g><defs><clipPath id="a"><path fill="#fff" d="M0 .857h80v30.286H0z"/></clipPath></defs></svg>