<svg xmlns="http://www.w3.org/2000/svg" width="85" height="22" fill="none"><g clip-path="url(#a)"><path fill="#33629A" d="M8.672 2.088h1.827a6.154 6.154 0 0 1 3.285.417 5.818 5.818 0 0 1 2.628 3.51c.273.769.273.769.93.496h.513V.421H.659v1.074h.705a2.051 2.051 0 0 1 1.602.753c.658 1.058.77 2.244.77 8.414 0 6.555-.145 8.157-.77 8.975a1.731 1.731 0 0 1-1.33.705c-.977.176-.977.16-.977.593a.641.641 0 0 0 0 .448h10.85a1.01 1.01 0 0 0 0-.913 5.533 5.533 0 0 0-.802-.16 5.35 5.35 0 0 1-.865-.177 2.885 2.885 0 0 1-1.17-2.612c-.16-1.058-.24-2.997-.24-4.6v-1.265h.64a8.65 8.65 0 0 1 2.372.256 2.966 2.966 0 0 1 1.378 2.115l.145.497h.977v-7.1h-.897l-.144.69a2.853 2.853 0 0 1-1.459 2.115c-.379.113-.779.14-1.17.08H8.431V8.58c0-1.795.096-5.577.16-6.17l.08-.321Zm75.001 12.709a5.817 5.817 0 0 0-3.317-2.516 8.014 8.014 0 0 1-2.869-1.603 1.603 1.603 0 0 1-.464-1.426c0-.506.203-.99.56-1.347a1.939 1.939 0 0 1 1.924-.528 4.039 4.039 0 0 1 2.836 3.013c.257.72.289.72.753.528l.289-.112v-3.99l-.209-.096a12.388 12.388 0 0 0-4.92-.674A5.77 5.77 0 0 0 74.41 7.65a4.424 4.424 0 0 0-1.394 3.462c.01.984.4 1.926 1.09 2.628.762.75 1.698 1.3 2.724 1.602 2.484.978 3.205 1.603 3.205 2.741a2.115 2.115 0 0 1-1.602 2.1 3.96 3.96 0 0 1-1.699 0 4.937 4.937 0 0 1-2.997-3.382l-.208-.513h-.289c-.137.01-.273.043-.4.096h-.16v4.552h.272c1.083.36 2.2.607 3.333.737h1.603a6.283 6.283 0 0 0 2.067-.192 4.984 4.984 0 0 0 3.782-3.206c.192-.457.29-.947.289-1.442a3.99 3.99 0 0 0-.353-2.035ZM68.577 6.51a7.388 7.388 0 0 0-6.042.144 7.036 7.036 0 0 0-3.67 4.375 8.559 8.559 0 0 0-.433 3.206 8.772 8.772 0 0 0 .145 1.763 7.115 7.115 0 0 0 5.753 5.737 11.22 11.22 0 0 0 2.805 0 7.691 7.691 0 0 0 2.724-1.042 4.807 4.807 0 0 0 1.699-1.602.801.801 0 0 0-.385-.497 2.07 2.07 0 0 0-.513.272 4.583 4.583 0 0 1-2.692.753 4.28 4.28 0 0 1-3.414-1.346 3.832 3.832 0 0 1-.817-1.09 7.453 7.453 0 0 1-.785-3.205v-.625h8.878v-.32c.02-.32.02-.642 0-.962a6.41 6.41 0 0 0-3.253-5.56Zm-4.471 5.545h-1.122v-.945c.368-2.42 1.282-3.863 2.404-3.863 1.121 0 1.602 1.427 1.81 4.039v.737h-.96l-2.132.032ZM41.06 5.982a3.366 3.366 0 0 0-1.602.337 5.369 5.369 0 0 0-2.484 2.484l-.209.385V5.982h-.08c-.192 0-6.122 1.186-6.314 1.266-.192.08-.128.097-.128.385 0 .288 0 .337.128.353l.625.128a1.154 1.154 0 0 1 .897.465c.401.528.481 1.458.481 5.416.08 1.782.004 3.568-.224 5.337a1.315 1.315 0 0 1-1.106 1.042l-.545.112h-.208v.449a.64.64 0 0 0 0 .464h8.958v-.464a1.17 1.17 0 0 0 0-.465 8.955 8.955 0 0 1-1.602-.208 1.602 1.602 0 0 1-.85-1.603c-.128-.93-.192-3.654-.16-5.737.032-2.084 0-2.212.176-2.356a2.884 2.884 0 0 1 1.875-.593 4.183 4.183 0 0 1 1.827.465c.197.108.407.19.625.24 0 0 1.603-3.878 1.603-4.055a1.891 1.891 0 0 0-1.683-.64ZM30.26 12.713a7.195 7.195 0 0 0-3.302-5.705 8.334 8.334 0 0 0-7.5-.208 7.244 7.244 0 0 0-3.51 4.166 10.706 10.706 0 0 0 0 6.154 6.715 6.715 0 0 0 1.715 2.901 6.506 6.506 0 0 0 3.702 1.795c.896.075 1.797.075 2.693 0 .33-.05.656-.12.977-.208a7.131 7.131 0 0 0 5.113-5.69c.16-1.06.197-2.136.112-3.205Zm-6.667 8.013c-1.603.481-2.805-1.073-3.205-4.343a30.04 30.04 0 0 1 0-5.144c.32-2.628 1.138-3.959 2.404-3.959a1.603 1.603 0 0 1 1.346.593c1.073 1.074 1.602 3.206 1.602 6.41a11.875 11.875 0 0 1-.833 5.321c-.3.492-.767.861-1.314 1.042v.08ZM52.439 6.303a5.337 5.337 0 0 0-1.362 0c-.869 0-1.727.185-2.517.545l-.496.208V3.578a23.901 23.901 0 0 0 0-3.525c-.193 0-6.315 1.17-6.41 1.218a.496.496 0 0 0 0 .368c0 .337 0 .32.72.481.203.046.397.121.577.224.313.295.521.683.593 1.106.183 1.22.242 2.455.177 3.686v14.071l.432.096c.641.144 2.452.449 3.045.513a22.43 22.43 0 0 0 3.558 0 7.259 7.259 0 0 0 5.994-4.503c.295-.787.499-1.604.609-2.436a14.424 14.424 0 0 0-.113-3.382 6.17 6.17 0 0 0-4.807-5.192Zm-4.2 14.15c0-.207-.16-7.227-.127-10.031V8.226l.464-.112c.314-.045.632-.045.946 0 .347-.035.696.043.994.224a4.806 4.806 0 0 1 2.067 3.654 17.62 17.62 0 0 1 0 3.51 7.708 7.708 0 0 1-1.86 4.6c-.314.298-.71.499-1.137.576a2.855 2.855 0 0 1-.977 0c-.305 0-.305-.096-.305-.224h-.064Z"/></g><defs><clipPath id="a"><path fill="#fff" d="M.643.053h83.399v21.843H.642z"/></clipPath></defs></svg>