<svg xmlns="http://www.w3.org/2000/svg" width="90" height="22" fill="none"><g clip-path="url(#a)"><path fill="#0F7EC2" d="M2.146.733a.623.623 0 0 0-.622.622v8.423c0 .342.28.622.622.622h8.423c.342 0 .622-.28.622-.622V1.34a.62.62 0 0 0-.622-.607H2.146ZM6.358 2.04a3.549 3.549 0 0 1 3.45 2.75c.062.25.093.498.093.762v.031a3.55 3.55 0 0 1-1.197 2.642 3.441 3.441 0 0 1-2.347.901 3.609 3.609 0 0 1-1.724-.45 3.52 3.52 0 0 1-.622-.451A3.511 3.511 0 0 1 2.83 5.582v-.031c0-.264.03-.513.093-.762a3.518 3.518 0 0 1 3.435-2.75Zm0 .761c-1.182 0-2.176.73-2.58 1.772a.153.153 0 0 0 .14.217h4.88a.153.153 0 0 0 .14-.217A2.773 2.773 0 0 0 6.357 2.8ZM3.747 5.536v.015a.156.156 0 0 0-.156.155c.032.653.296 1.26.715 1.71.062.078.187.062.249-.016l.45-.668-.435-1.196h-.823Zm4.398.015L7.71 6.748l.45.668c.062.078.171.093.25.015a2.71 2.71 0 0 0 .714-1.725c.015-.077-.062-.155-.155-.155h-.824Zm-2.487 1.6-.497.731c-.047.078-.031.187.062.233.342.156.73.249 1.135.249.404 0 .792-.093 1.134-.249.093-.046.109-.155.062-.233l-.482-.73H5.658Z"/><path fill="#A0A09F" d="M13.04 11.611a.624.624 0 0 0-.621.622v8.423c0 .342.28.622.622.622h8.423c.342 0 .622-.28.622-.622v-8.423a.623.623 0 0 0-.622-.622H13.04Zm4.228.933c.015 0 .046.015.046.03l.886 2.752h2.89c.047 0 .078.062.032.093l-2.331 1.694.886 2.75c.015.032-.016.078-.047.078-.016 0-.015 0-.031-.015l-2.331-1.694-2.331 1.694c-.016 0-.016.015-.031.015-.032 0-.063-.031-.047-.078l.886-2.75-2.331-1.694c-.047-.031-.016-.093.03-.093h2.891l.886-2.751c.016-.031.031-.031.047-.031Zm-.016 2.269-.233.746-.17.512h-1.322l.637.451.435.326-.17.513-.233.73.621-.45.435-.326.435.326.637.45-.248-.73-.171-.513.435-.326.637-.45H17.656l-.155-.513-.249-.746Z"/><path fill="#FFCA0F" d="M13.025.733a.624.624 0 0 0-.622.622v8.423c.016.342.296.622.622.622h8.423c.342 0 .622-.28.622-.622V1.355a.624.624 0 0 0-.622-.622h-8.423Zm4.631 1.15a.762.762 0 0 1 0 1.523.646.646 0 0 1-.249-.046c-.062-.031-.14-.063-.186-.11a.758.758 0 0 1 .435-1.367Zm-.672 1.62c.162.001.32.047.455.152.14.124.233.28.31.45.094.234.218.53.311.762 0 0 0 .016.016.016l.046.046.031.016 1.088.513-.28.683s-.295-.108-.326-.124c-.218-.093-.248-.077-.466-.17-.124-.047-.109-.063-.233-.11-.047-.015-.078-.046-.124-.046-.125-.047-.28-.156-.467-.637 0 .015-.42 1.196-.42 1.196 0 .156.016.653.047.98 0 .092.016.186.016.232.015.296-.078.405-.28.591a55.271 55.271 0 0 0-1.15 1.119l-.59-.497 1.134-1.213s-.124-.73-.14-.808c-.046-.326-.093-.45-.062-.683 0-.016 0-.047.015-.063l.234-.979c-.094.078-.218.156-.358.296-.202.186-.73.885-.73.885l-.56-.373c0-.062.311-.481.389-.59.202-.264.435-.513.668-.73.14-.14.466-.451.668-.622.204-.175.487-.295.758-.292Zm.16 2.56 1.942 3.093h-.855L17.128 7.51l-.047-1.243c.016-.047.031-.125.062-.202Z"/><path fill="#BF1E2E" d="M2.146 11.611a.624.624 0 0 0-.622.622v8.423c0 .342.28.622.622.622h8.423c.342 0 .622-.28.622-.622v-8.423a.624.624 0 0 0-.622-.622H2.146Zm2.89 2.083h.25l-1.834 5.501h-.669l2.254-5.501Zm.467 0h.715l-.016.45h.295l-.015-.45h.715l1.445 5.501H6.7l-.016-.45h-.668l-.016.45H4.058l1.445-5.501Zm1.927 0h.248l2.254 5.501h-.668L7.43 13.694Zm-1.259 1.15-.047 1.259h.451l-.047-1.26h-.357Zm-.078 1.942-.046 1.275h.606l-.047-1.275h-.513Z"/><path fill="#0F7EC2" d="M68.83.67c-1.398 0-2.796.39-3.853 1.166-1.057.778-1.772 1.958-1.772 3.528v.11c.016 1.6.56 2.688 1.507 3.403.948.714 2.27 1.04 3.855 1.15.544.03 1.056.077 1.476.17.42.094.746.233.917.451.124.14.186.327.186.56 0 .388-.248.668-.652.885-.404.202-.948.311-1.508.311s-1.135-.108-1.539-.326c-.42-.218-.683-.575-.683-1.01v-.047h-3.761v.14c0 1.616.746 2.828 1.865 3.605 1.119.793 2.595 1.182 4.072 1.182 1.492 0 2.999-.39 4.118-1.182 1.134-.792 1.896-1.973 1.896-3.543 0-1.85-.73-2.89-1.818-3.481-1.088-.606-2.534-.762-3.98-.933-.465-.046-.916-.108-1.273-.217-.358-.109-.637-.264-.793-.482a.921.921 0 0 1-.17-.56v-.108c.03-.404.279-.715.667-.933.373-.217.886-.341 1.368-.341.482 0 .948.108 1.274.326.342.217.56.544.56.98v.077h3.698v-.156c0-1.57-.714-2.766-1.771-3.543C71.659 1.059 70.245.67 68.83.67Zm12.185.14-6.558 14.22v.53h3.636l.855-1.835h5.75l.855 1.834h3.636v-.544L82.616.811h-1.601Zm-56.15.032v14.81h4.01V8.597l7.211 7.04.016.03h1.46V.905h-3.978v7.024L26.327.842h-1.461Zm13.739.062v14.748h3.978V9.793h4.32v5.86h3.979V.903h-3.978v5.3h-4.32v-5.3h-3.98Zm13.132 0v3.497h3.59v11.251h3.838V4.401h3.56V.904H51.735Zm30.071 5.921.078.17 1.6 3.467h-3.294l1.616-3.637Z"/><path fill="#BF1E2E" d="M40.764 19.708c-.373 0-.762.249-.762.762 0 .512.39.761.762.761.28 0 .56-.124.668-.435.047-.14.047-.28.047-.435h-.7v.342h.311c-.062.14-.17.186-.326.186-.233 0-.373-.155-.373-.404 0-.233.124-.42.373-.42.155 0 .249.047.31.171h.374c-.078-.373-.389-.528-.684-.528Zm17.281 0c-.373 0-.761.249-.761.762 0 .512.388.761.761.761.311 0 .653-.17.7-.59h-.373a.316.316 0 0 1-.327.248c-.217 0-.373-.186-.373-.42 0-.248.14-.42.373-.42.156 0 .28.063.327.218h.373c-.063-.404-.389-.559-.7-.559Zm2.277.004c-.287 0-.575.16-.567.478 0 .326.217.435.544.45.155.016.264.032.264.14 0 .171-.466.171-.466-.015h-.373c-.016.653 1.196.637 1.196.015.016-.357-.28-.404-.575-.435-.14-.015-.248-.031-.233-.155.016-.171.42-.187.42 0h.357c.008-.319-.28-.478-.567-.478Zm18.09 0c-.288 0-.576.16-.568.478 0 .326.218.435.544.45.156.016.28.032.28.14 0 .171-.466.171-.466-.015h-.373c-.016.653 1.196.637 1.196.015 0-.357-.295-.404-.59-.435-.14-.015-.249-.031-.233-.155.015-.171.42-.187.42 0h.357c.008-.319-.28-.478-.567-.478Zm-47.392.004c-.38 0-.761.256-.761.77 0 1.025 1.522 1.025 1.522 0 0-.514-.38-.77-.76-.77Zm55.714 0c-.381 0-.762.256-.762.77 0 1.025 1.523 1.025 1.523 0 0-.514-.38-.77-.761-.77Zm-59.646.008-.668 1.445v.062h.373l.093-.187h.59l.094.187h.373v-.062l-.669-1.445h-.186Zm7.289 0-.669 1.445v.062h.373l.094-.187h.59l.094.187h.373v-.062l-.669-1.445h-.186Zm11.718 0-.669 1.445v.062h.373l.093-.187h.591l.093.187h.373v-.062l-.668-1.445h-.186Zm6.573 0L52 21.169v.062h.373l.093-.187h.59l.094.187h.373v-.062l-.668-1.445h-.187Zm9.123 0-.668 1.445v.062h.373l.093-.187h.59l.094.187h.373v-.062l-.669-1.445h-.186Zm7.77 0-.668 1.445v.062h.373l.093-.187h.59l.094.187h.373v-.062l-.668-1.445h-.187Zm2.782 0v1.491h.388v-.652l.311.326h.047l.31-.326v.652h.39v-1.491h-.14l-.591.652-.575-.652h-.14Zm2.875 0v1.491h.388v-.73l.762.746h.124V19.74h-.388v.73l-.746-.745h-.14Zm7.568 0-.668 1.445v.062h.373l.093-.187h.59l.094.187h.373v-.062l-.668-1.445h-.187Zm5.082 0v1.491h.389v-.73l.746.746h.14V19.74h-.389v.73l-.746-.745h-.14Zm-63.002.015v1.492h.388v-.73l.746.73h.14V19.74h-.388v.73l-.762-.73h-.124Zm3.092 0v.342h.358v1.15h.389v-1.15h.357v-.342h-1.104Zm1.321 0v.327h.171v.823h-.186v.342h.746v-.342h-.187v-.823h.171v-.327h-.715Zm2.875 0v1.492h.389v-.73l.761.73h.125V19.74h-.389v.73l-.746-.73h-.14Zm3.342 0v1.492h.917v-.342h-.529v-1.15h-.388Zm1.942 0v1.492h.389v-.606h.466v.606h.389V19.74h-.389v.544h-.466v-.544h-.389Zm1.601 0v.327h.171v.823h-.186v.342h.745v-.342h-.186v-.823h.17v-.327h-.714Zm2.828 0v1.492h.404v-.606h.451v.606h.389V19.74h-.389v.544h-.45v-.544h-.405Zm1.555 0v.062l.528 1.446h.202l.233-.715h.016l.233.715h.217l.529-1.446v-.062h-.389l-.186.56-.063.248h-.015l-.249-.792h-.155l-.249.792h-.015l-.062-.248-.187-.56h-.389Zm3.512 0v.062l.497.793v.637h.373v-.637l.497-.793v-.062h-.404l-.28.497h-.015l-.264-.497h-.404Zm2.191 0v.342h.357v1.15h.373v-1.15h.373v-.342h-1.103Zm1.414 0v1.492h.373v-.435h.202l.249.435h.42v-.062l-.296-.466c.404-.264.295-.964-.295-.964h-.653Zm3.248 0v1.492h.389v-.482h.482v-.342h-.482v-.326h.544v-.342h-.933Zm1.306 0v1.492h.388v-.482h.482v-.342h-.482v-.326h.544v-.342h-.932Zm1.196 0v.327h.171v.823h-.186v.342h.761v-.342h-.202v-.823h.187v-.327h-.73Zm6.62 0v1.476h.39v-.481h.48v-.327h-.48v-.326h.543v-.342h-.932Zm1.306 0v1.476h.948v-.326h-.575v-.264h.513v-.342h-.513v-.202h.56v-.342h-.933Zm1.212 0v.342h.373v1.134h.373v-1.134h.358v-.342h-1.104Zm1.306 0v.047l.497.808v.621h.389v-.621l.497-.808v-.047h-.42l-.264.497h-.016l-.264-.497h-.42Zm3.947 0v1.492h.56c.963-.015.963-1.492 0-1.492h-.56Zm3.466 0v.327h.17v.823h-.186v.326h.761v-.326h-.201v-.823h.186v-.327h-.73Zm2.704 0v.327h.17v.823h-.186v.326h.762v-.326h-.187v-.823h.171v-.327h-.73Zm2.393 0v.342h.373v1.134h.373v-1.134h.357v-.342h-1.103Zm1.43 0v1.492h.373v-.435h.202l.248.435h.42v-.062l-.295-.466c.388-.264.28-.964-.295-.964h-.653Zm2.984 0v.342h.373v1.134h.373v-1.134h.372v-.342h-1.118Zm1.32 0v.327h.187v.823h-.202v.326h.762v-.326h-.187v-.823h.17v-.327h-.73Zm-34.065.342h.28c.217 0 .217.373 0 .373h-.28v-.373Zm20.141 0h.187c.466 0 .466.793 0 .793h-.187v-.793Zm9.993 0h.28c.217 0 .202.373 0 .373h-.28v-.373Zm-50.026.008c.187 0 .373.132.373.396a.374.374 0 0 1-.746 0c0-.264.187-.396.373-.396Zm55.714 0c.186 0 .373.132.373.396 0 .528-.746.528-.746 0 0-.264.186-.396.373-.396Zm-59.568.24.17.39h-.341l.17-.39Zm7.304 0 .17.39h-.34l.17-.39Zm11.718 0 .17.39h-.341l.17-.39Zm6.558 0 .17.39h-.341l.17-.39Zm9.138 0 .17.39h-.34l.17-.39Zm7.755 0 .17.39h-.341l.17-.39Zm13.24 0 .171.39h-.341l.17-.39ZM89.361 17.517H24.836v.404H89.36v-.404Z"/></g><defs><clipPath id="a"><path fill="#fff" d="M.886.053H90v21.843H.886z"/></clipPath></defs></svg>