<svg xmlns="http://www.w3.org/2000/svg" width="79" height="22" fill="none"><g clip-path="url(#a)"><path fill="#005AB3" fill-rule="evenodd" d="m63.246 16.878-9.41-2.767-.29 1.266 3.725 1.5h5.977-.002Zm-9.03-4.436-.291 1.277 10.74 3.159h.083a17.435 17.435 0 0 0 6.553-1.143l-17.085-3.293Zm12.068-.695c-.451.661-2.063 1.115-4.428 1.115l.358-1.501-7.585-.717-.322 1.406 17.626 3.394c1.42-.711 2.432-1.68 2.8-2.896l-8.45-.8Zm5.477-2.94H55.043l-.327 1.445 7.59.717c.083-.358.167-.706.23-.975 2.198-.095 3.888.426 3.885 1.367l8.418.795a3.65 3.65 0 0 0 .06-.672c.019-.823-.63-2.201-3.14-2.677m-18.306 6.967c-.081.359-.168.723-.253 1.104h2.996l-2.743-1.104ZM71.731 8.41a6.482 6.482 0 0 0 2.302-.761 3.814 3.814 0 0 0 1.936-3.507c-.033-.84-.953-1.87-2.028-2.346C72.031.943 69.203.69 67.444.69h-10.55c-.722 3.154-1.241 5.439-1.76 7.718h16.597Zm-7.766-4.654c1.336 0 3.347.129 3.366 1.131a1.33 1.33 0 0 1-1.016 1.266 9.2 9.2 0 0 1-2.992.398l.642-2.795Zm-23.702 7.208 9.6 6.072c.57-.062 1.136-.163 1.693-.303l-11.292-5.769Zm8.64 1.692c-.084.005-.171.016-.252.016a4.49 4.49 0 0 1-3.086-.996l-4.582-1.35 11.388 4.581c.088-.38.173-.75.268-1.148l-3.736-1.103Zm-9.08-2.364 12.179 6.217c.105-.454.195-.846.28-1.204L39.823 10.29Zm13.27 1.524.12-.516a5.89 5.89 0 0 1-.732.398l.611.118Zm-14.787-1.613 8.818 6.972c.26 0 .515-.005.76-.01.371 0 .84-.023 1.333-.068l-10.911-6.894Zm6.461-1.793c.57-1.669 2.81-2.666 4.925-2.923 1.72-.18 3.793.23 4.49 1.512.55-2.537.905-3.949 1.437-6.324a27.51 27.51 0 0 0-4.853-.341c-3.304.134-8.6.93-11.892 4.05a9.172 9.172 0 0 0-2.477 4.026h8.37Zm-8.546.661c-.478 2.565.222 4.357 1.562 5.584 2.079 1.899 5.669 2.459 8.685 2.515L36.22 9.07Zm8.446-.263h-5.153l5.124.487c0-.045-.008-.084-.008-.129.005-.12.018-.24.039-.358m.192 1.826-4.057-.779 4.313 1.272a2.737 2.737 0 0 1-.254-.493m6.973 1.35c-.62.24-1.26.426-1.911.554l2.809.829.27-1.16-1.168-.223Zm-7.089-1.776a3.5 3.5 0 0 1-.084-.51l-5.03-.476 5.114.986ZM27.242 6.281l-.12.526 5.57 1.076-5.45-1.602Zm.218-.969-.13.577 5.796 1.702-5.666-2.279Zm7.85 2.526.225.14L37.097.489 28.55.48l-.386 1.708 7.148 5.65Zm-8.28-.639-.094.415 4.435.42-4.341-.835Zm4.036 1.21-4.22-.397-.09.397h4.31Zm4.211.398h-8.61l-1.826 8.07h8.84l1.68-8.059-.084-.011ZM32.64 6.623l-4.794-3.03-.118.52 4.912 2.51Zm-.962-.04-4.04-2.066-.092.403 4.133 1.663ZM27.94 3.178l4.13 2.61-4.005-3.165-.125.555ZM18.607 1.75l-.388 1.456 7.577 2.23.174-.718-7.363-2.968ZM3.167 5.362 15.695 6.55l-1.12-1.753L3.758 2.713l-.592 2.65Zm22.143 2.1.136-.57-7.808-1.502-.35 1.311 8.022.762ZM20.514.429 26.29 3.38l.161-.672-3.61-2.28h-2.328Zm5.026 6.077.163-.678-7.587-2.235-.375 1.412 7.799 1.501Zm.525-2.184.13-.538L19.631.428h-.672l-.248.935 7.354 2.958Zm-11.79.01L11.773.429H4.268L3.845 2.32l10.43 2.01ZM25.082 8.41l.134-.554-8.032-.762-.336 1.26-.88-1.378-12.89-1.22-.592 2.654h22.597ZM2.4 8.807.58 16.957l8.066-.08 1.576-7.555 5.183 7.556h7.642l1.94-8.071H2.397Zm24.153-6.508.449-1.871h-3.406l2.957 1.87ZM78.313.613a1.266 1.266 0 0 0-2.05.399c-.063.15-.094.312-.091.475a1.243 1.243 0 0 0 1.251 1.249 1.224 1.224 0 0 0 .89-.364 1.21 1.21 0 0 0 .366-.885 1.184 1.184 0 0 0-.366-.874Zm.145-.14a1.423 1.423 0 0 1 0 2.033 1.466 1.466 0 0 1-2.38-.466 1.424 1.424 0 0 1 .318-1.567 1.476 1.476 0 0 1 2.062 0Zm-.818.946a.238.238 0 0 0 .166-.246.24.24 0 0 0-.106-.23.734.734 0 0 0-.341-.061h-.242v.576h.257a.663.663 0 0 0 .268-.039m-.804.852V.697h.56c.148-.008.297.01.438.056a.392.392 0 0 1 .248.397.35.35 0 0 1-.156.314.676.676 0 0 1-.233.073.401.401 0 0 1 .276.157c.055.07.086.157.088.246v.112l.004.118c0 .028.004.057.014.084l.01.017h-.265l-.004-.012-.003-.022-.007-.05v-.124a.391.391 0 0 0-.15-.364.695.695 0 0 0-.315-.05h-.224v.622h-.28ZM.473 21.846v-2.689h.535l1.12 1.798v-1.798h.51v2.689h-.55L.985 20.08v1.765H.473Zm3.452-1.07.367-.991.378.991h-.745Zm.66-1.619h-.583l-1.058 2.689h.584l.227-.61h1.094l.235.61h.598l-1.096-2.689Zm1.72 2.689V19.61h-.803v-.454h2.16v.454h-.804v2.235h-.553Zm1.7-2.689h.552v2.689h-.553v-2.689Zm1.74.65a.717.717 0 0 1 .55-.23.708.708 0 0 1 .549.23 1.259 1.259 0 0 1-.006 1.389.697.697 0 0 1-.543.235.706.706 0 0 1-.545-.235.995.995 0 0 1-.215-.695c-.018-.249.056-.496.21-.694Zm-.417 1.725a1.307 1.307 0 0 0 .968.364 1.28 1.28 0 0 0 .961-.37 1.629 1.629 0 0 0-.003-2.044 1.288 1.288 0 0 0-.965-.37c-.2-.002-.4.035-.588.107a1.08 1.08 0 0 0-.353.246 1.225 1.225 0 0 0-.253.364c-.09.22-.132.457-.125.695a1.389 1.389 0 0 0 .358 1.008Zm2.722.314v-2.689h.534l1.12 1.798v-1.798h.51v2.689h-.55l-1.103-1.765v1.765h-.51Zm3.452-1.07.367-.991.378.991h-.745Zm.66-1.619h-.582l-1.058 2.689h.585l.224-.61h1.094l.235.61h.596l-1.093-2.689Zm1.407 2.689V19.18h.553v2.212h1.366v.454H17.57Zm3.285-2.689h.552v2.689h-.552v-2.689Zm1.08 2.689v-2.689h.535l1.12 1.798v-1.798h.51v2.689h-.55l-1.104-1.765v1.765h-.511Zm2.609-.88.537-.05a.64.64 0 0 0 .195.392.734.734 0 0 0 .798.011.322.322 0 0 0 .134-.258.247.247 0 0 0-.056-.162.457.457 0 0 0-.197-.118 6.239 6.239 0 0 0-.44-.117 1.415 1.415 0 0 1-.615-.263.685.685 0 0 1-.251-.538.708.708 0 0 1 .458-.655c.17-.067.353-.1.536-.096.276-.018.549.061.772.225a.784.784 0 0 1 .272.593l-.553.023a.44.44 0 0 0-.15-.297.546.546 0 0 0-.347-.095.61.61 0 0 0-.373.1.188.188 0 0 0-.087.163.21.21 0 0 0 .081.168c.156.09.327.15.504.179.204.04.403.104.593.19a.755.755 0 0 1 .3.275.8.8 0 0 1 .108.431.798.798 0 0 1-.498.734c-.19.068-.392.1-.594.095a1.195 1.195 0 0 1-.794-.235 1.045 1.045 0 0 1-.33-.695m2.678-1.809h.553v1.456a2.99 2.99 0 0 0 .02.454.443.443 0 0 0 .169.264.586.586 0 0 0 .363.1c.125.011.25-.023.352-.095a.37.37 0 0 0 .144-.23c.02-.152.027-.305.024-.459v-1.49h.553v1.412a3.58 3.58 0 0 1-.045.689.732.732 0 0 1-.165.336.823.823 0 0 1-.321.224c-.17.057-.348.083-.526.078-.202.01-.404-.02-.594-.09a.805.805 0 0 1-.32-.229.76.76 0 0 1-.154-.297 3.33 3.33 0 0 1-.056-.689v-1.434h.003Zm3.315.454h.425c.224 0 .355.006.4.011.079.01.152.048.206.107a.32.32 0 0 1 .074.218.353.353 0 0 1-.056.202.254.254 0 0 1-.153.112c-.162.03-.327.042-.492.033h-.407v-.683h.003Zm0 2.235v-1.12h.112a.854.854 0 0 1 .275.028.43.43 0 0 1 .165.112c.103.127.2.26.289.397l.392.583h.659l-.332-.527a3.32 3.32 0 0 0-.313-.437 1.336 1.336 0 0 0-.294-.224.879.879 0 0 0 .538-.246.716.716 0 0 0 .179-.499.765.765 0 0 0-.119-.425.608.608 0 0 0-.317-.258 1.937 1.937 0 0 0-.634-.073h-1.155v2.689h.555Zm2.899-1.07.367-.991.378.991h-.748.003Zm.661-1.619h-.585l-1.058 2.689h.585l.224-.61h1.094l.235.61h.595l-1.09-2.689Zm1.393 2.689v-2.689h.535l1.12 1.798v-1.798h.51v2.689h-.554l-1.104-1.765v1.765h-.51.003Zm4.498-.991.536.162c-.06.26-.204.492-.41.66a1.16 1.16 0 0 1-.728.214 1.177 1.177 0 0 1-.896-.365 1.375 1.375 0 0 1-.351-.996 1.474 1.474 0 0 1 .352-1.048 1.224 1.224 0 0 1 .927-.37c.3-.01.591.094.816.292.136.137.233.31.28.498l-.546.129a.56.56 0 0 0-.203-.33.604.604 0 0 0-.374-.124.625.625 0 0 0-.496.219 1.013 1.013 0 0 0-.19.689c-.024.257.042.514.187.728a.606.606 0 0 0 .486.213.568.568 0 0 0 .38-.135.823.823 0 0 0 .227-.436m1.008.99v-2.688h2.02v.454H41.55v.6h1.365v.453H41.55v.728h1.518v.454h-2.072Zm5.347-.99.536.162c-.06.26-.204.492-.41.66a1.16 1.16 0 0 1-.729.214 1.173 1.173 0 0 1-.896-.365 1.37 1.37 0 0 1-.35-.996 1.477 1.477 0 0 1 .35-1.048 1.226 1.226 0 0 1 .928-.37c.3-.01.59.094.815.292.137.137.234.31.28.498l-.545.129a.56.56 0 0 0-.202-.33.608.608 0 0 0-.376-.124.623.623 0 0 0-.495.219 1.008 1.008 0 0 0-.19.689 1.12 1.12 0 0 0 .186.728.604.604 0 0 0 .486.213.571.571 0 0 0 .38-.135.84.84 0 0 0 .229-.436M47.9 19.61h.427c.224 0 .356.006.4.011.079.01.152.048.207.107.05.06.077.139.073.218a.353.353 0 0 1-.056.202.255.255 0 0 1-.153.112c-.162.03-.328.042-.492.033H47.9v-.683Zm0 2.235v-1.12h.112a.86.86 0 0 1 .276.028c.063.024.119.062.165.112.103.127.2.26.288.397l.393.583h.658l-.332-.527a3.24 3.24 0 0 0-.312-.437 1.361 1.361 0 0 0-.294-.224.878.878 0 0 0 .537-.246.718.718 0 0 0 .18-.499.767.767 0 0 0-.12-.425.606.606 0 0 0-.316-.258 1.93 1.93 0 0 0-.633-.073h-1.15v2.689h.554-.006Zm2.18-2.689h.552v2.689h-.552v-2.689Zm1.071 2.689v-2.689h.825l.491 1.832.49-1.832h.828v2.689h-.51v-2.117l-.543 2.117h-.53l-.534-2.117v2.117h-.517Zm3.184 0v-2.689h2.02v.454h-1.467v.6h1.37v.453h-1.366v.728h1.52v.454h-2.077Zm4.47-2.24c.156-.006.313-.002.469.01a.289.289 0 0 1 .206.09.304.304 0 0 1 .07.202.29.29 0 0 1-.08.213.384.384 0 0 1-.225.095 4.758 4.758 0 0 1-.398.011h-.36v-.622h.318Zm-.867 2.24h.927c.352 0 .573-.006.664-.017a.728.728 0 0 0 .607-.403.808.808 0 0 0 .086-.359.654.654 0 0 0-.133-.409.712.712 0 0 0-.382-.24.682.682 0 0 0 .28-.236.64.64 0 0 0 .018-.666.738.738 0 0 0-.21-.224.788.788 0 0 0-.284-.112 3.468 3.468 0 0 0-.482-.023H57.94v2.689h-.002Zm.998-1.17c.163-.01.328.003.487.038.07.019.131.06.174.118.04.061.061.134.06.207a.339.339 0 0 1-.078.23.357.357 0 0 1-.2.106 2.5 2.5 0 0 1-.378.017h-.51v-.717h.447-.002Zm1.746-1.519h.553v1.456c-.005.152.002.304.02.454a.445.445 0 0 0 .168.264.583.583 0 0 0 .363.1c.125.01.25-.023.352-.095a.366.366 0 0 0 .143-.23c.02-.152.029-.305.025-.459v-1.49h.561v1.412c.007.23-.008.46-.045.689a.73.73 0 0 1-.165.336.829.829 0 0 1-.321.224c-.17.057-.347.083-.526.078-.202.01-.404-.02-.593-.09a.797.797 0 0 1-.475-.526 3.356 3.356 0 0 1-.053-.689v-1.434h-.007Zm3.315.454h.427c.224 0 .356.006.399.011.079.01.152.048.207.107a.32.32 0 0 1 .073.218.352.352 0 0 1-.056.202.257.257 0 0 1-.153.112c-.162.03-.328.042-.492.033h-.405v-.683Zm0 2.235v-1.12h.112a.86.86 0 0 1 .276.028c.063.023.12.062.165.112.103.127.2.26.288.397l.395.583h.658l-.332-.527a3.28 3.28 0 0 0-.312-.437 1.342 1.342 0 0 0-.294-.224.874.874 0 0 0 .537-.246.713.713 0 0 0 .18-.499.768.768 0 0 0-.12-.425.606.606 0 0 0-.316-.258 1.93 1.93 0 0 0-.633-.073h-1.156v2.689h.553-.001Zm2.2 0v-2.689h2.021v.454H66.75v.6h1.365v.453H66.75v.728h1.519v.454h-2.073Zm3.242-1.07.366-.991.378.991h-.745Zm.66-1.619h-.578l-1.058 2.689h.585l.224-.61h1.095l.235.61h.595L70.1 19.157Zm1.385 0h.553v1.456c-.005.152.002.304.021.454.022.106.082.2.168.264a.587.587 0 0 0 .363.1c.125.011.25-.023.353-.095a.367.367 0 0 0 .143-.23c.02-.152.028-.305.024-.459v-1.49h.553v1.412c.008.23-.007.46-.045.689a.734.734 0 0 1-.163.336.841.841 0 0 1-.323.224 1.514 1.514 0 0 1-.525.078c-.202.01-.404-.02-.594-.09a.81.81 0 0 1-.32-.229.758.758 0 0 1-.154-.297 3.268 3.268 0 0 1-.056-.689v-1.434h.002Z" clip-rule="evenodd"/></g><defs><clipPath id="a"><path fill="#fff" d="M.474.053h78.412v21.843H.474z"/></clipPath></defs></svg>