<svg xmlns="http://www.w3.org/2000/svg" width="56" height="38" fill="none"><path fill="#C7C7C7" fill-rule="evenodd" d="M10.47 6.514h36.305a8.073 8.073 0 1 1 0 16.145H10.47v-.08a8.124 8.124 0 0 1-1.152.081v1.152h37.457a9.225 9.225 0 1 0 0-18.45H9.318v1.152c.391 0 .776.028 1.152.082v-.082Z" clip-rule="evenodd"/><path fill="#FFC107" d="M15.849 8.193v.918h-1.057V8.054h.917A9.208 9.208 0 0 0 9.245 5.41C4.139 5.411 0 9.552 0 14.661c0 5.108 4.139 9.249 9.245 9.249 5.106 0 9.245-4.141 9.245-9.25 0-2.518-1.009-4.799-2.641-6.467ZM9.245 21.267a6.605 6.605 0 0 1-6.604-6.607 6.605 6.605 0 0 1 11.282-4.662V9.98h1.1v1.1h-.232a6.566 6.566 0 0 1 1.058 3.58 6.605 6.605 0 0 1-6.604 6.606Zm9.774-17.442h1.056v1.058H19.02V3.825Zm3.17-1.057h1.056v1.057h-1.057V2.768Zm0-2.114h1.056v1.057h-1.057V.654Z"/><path fill="#36464E" d="M16.905 3.823h1.057v2.114h-1.057V3.823Zm-1.057 2.114h1.057v1.057h-1.057V5.937Zm2.114 0h1.056v1.057h-1.056V5.937Zm1.056-3.171h2.113v1.057h-2.113V2.766Zm0 2.114h1.057v1.057h-1.057V4.88Zm2.113-3.171h1.057v1.057h-1.057V1.709Zm-4.226 5.285v1.057h-1.057v1.057h-1.056V8.051h-1.057v1.057H12.68v2.115h-1.057c-.782 1.243-1.264 2.285-2.377 4.228 0 0-2.516-3.693-3.963-3.693 0 0-.528-.048-.528.483 0 .53.528.965.528.965s1.955 1.82 2.872 4.956c.096.338.385.965 1.206.965.482 0 .917-.386 1.206-.965.482-.965 2.074-3.9 3.17-5.354v-.528h1.056v-1.057h-1.057v-1.057h1.057v1.056h1.056v-1.056h1.057V9.107h1.057V6.994h-1.057Z"/><path fill="#36464E" d="M14.792 6.992h2.113V8.05h-2.113V6.992Zm2.113-3.17h2.113V4.88h-2.113V3.822Z"/><path fill="#000" d="M22.186 13.363a.196.196 0 0 1-.146-.056.196.196 0 0 1-.056-.145V7.918c0-.06.019-.108.056-.146a.196.196 0 0 1 .146-.056h.855c.091 0 .156.021.193.065.043.037.07.067.081.088l1.969 3.106V7.918c0-.06.018-.108.056-.146a.197.197 0 0 1 .145-.056h.968c.06 0 .108.019.146.056a.197.197 0 0 1 .056.146v5.244a.215.215 0 0 1-.056.145.197.197 0 0 1-.146.056h-.863c-.086 0-.15-.021-.194-.064a1.112 1.112 0 0 1-.072-.089l-1.969-2.985v2.937c0 .059-.018.107-.056.145a.196.196 0 0 1-.145.056h-.968Zm7.492.081c-.451 0-.833-.073-1.145-.218a1.636 1.636 0 0 1-.71-.621 2.139 2.139 0 0 1-.274-.976 7.442 7.442 0 0 1 0-.726c.021-.382.118-.708.29-.977.172-.268.411-.475.718-.62.312-.146.686-.219 1.121-.219.441 0 .815.073 1.122.218.312.146.554.353.726.621.172.27.269.595.29.977a7.309 7.309 0 0 1 0 .726 2.078 2.078 0 0 1-.282.976 1.578 1.578 0 0 1-.71.621c-.307.145-.689.218-1.146.218Zm0-.984c.242 0 .417-.073.525-.218.113-.145.177-.363.193-.654.006-.08.008-.188.008-.322a5.07 5.07 0 0 0-.008-.323c-.016-.285-.08-.5-.193-.645-.108-.151-.283-.226-.525-.226-.236 0-.411.075-.524.226-.113.145-.175.36-.186.645-.005.08-.008.188-.008.323 0 .134.003.242.008.322.011.29.073.509.186.654.113.145.288.218.524.218Zm3.141.903a.196.196 0 0 1-.145-.056.196.196 0 0 1-.056-.145V9.37c0-.054.019-.1.056-.137a.184.184 0 0 1 .145-.065h.928c.06 0 .108.022.145.065a.187.187 0 0 1 .057.137v.323c.145-.167.317-.296.516-.388.205-.091.433-.137.686-.137h.355c.054 0 .1.019.137.057a.184.184 0 0 1 .065.145v.83a.2.2 0 0 1-.065.146.187.187 0 0 1-.137.056h-.783c-.22 0-.392.062-.516.186-.118.118-.177.288-.177.508v2.066c0 .059-.022.107-.065.145a.197.197 0 0 1-.145.056h-1Zm5.608 0c-.344 0-.642-.053-.895-.161a1.242 1.242 0 0 1-.573-.516c-.135-.237-.202-.54-.202-.912v-1.549h-.629a.225.225 0 0 1-.153-.056.197.197 0 0 1-.057-.146V9.37c0-.06.02-.108.057-.145a.225.225 0 0 1 .153-.057h.63V7.837c0-.06.018-.108.056-.145a.215.215 0 0 1 .145-.057h.936c.059 0 .107.02.145.057a.196.196 0 0 1 .056.145v1.331h1.009c.06 0 .108.019.145.057a.197.197 0 0 1 .057.145v.653c0 .06-.02.108-.057.146a.197.197 0 0 1-.145.056h-1.008v1.436c0 .183.035.328.104.436.07.107.189.161.355.161h.622c.059 0 .107.019.145.057a.197.197 0 0 1 .056.145v.702c0 .059-.019.107-.056.145a.197.197 0 0 1-.145.056h-.75Zm3.605.081c-.452 0-.834-.073-1.146-.218a1.636 1.636 0 0 1-.71-.621 2.139 2.139 0 0 1-.274-.976 7.309 7.309 0 0 1 0-.726c.021-.382.118-.708.29-.977a1.69 1.69 0 0 1 .718-.62c.312-.146.686-.219 1.122-.219.44 0 .815.073 1.121.218.312.146.554.353.726.621.172.27.27.595.29.977a7.13 7.13 0 0 1 0 .726 2.078 2.078 0 0 1-.282.976 1.578 1.578 0 0 1-.71.621c-.306.145-.688.218-1.145.218Zm0-.984c.242 0 .417-.073.524-.218.113-.145.178-.363.194-.654.005-.08.008-.188.008-.322a5.16 5.16 0 0 0-.008-.323c-.016-.285-.08-.5-.194-.645-.107-.151-.282-.226-.524-.226-.237 0-.412.075-.524.226-.114.145-.175.36-.186.645a5.07 5.07 0 0 0-.008.323c0 .134.002.242.008.322.01.29.072.509.185.654.113.145.288.218.525.218Zm3.141.903a.196.196 0 0 1-.145-.056.196.196 0 0 1-.057-.145V9.37c0-.06.02-.108.057-.145a.196.196 0 0 1 .145-.057h.928c.059 0 .107.019.145.057a.197.197 0 0 1 .056.145v.306a1.69 1.69 0 0 1 .549-.42c.226-.112.492-.169.799-.169.312 0 .586.07.823.21.242.14.43.347.564.621.14.27.21.6.21.993v2.25c0 .06-.021.108-.064.146a.187.187 0 0 1-.138.056H48.03a.214.214 0 0 1-.145-.056.196.196 0 0 1-.057-.145v-2.203c0-.253-.062-.446-.185-.58-.119-.14-.296-.21-.533-.21-.22 0-.398.07-.532.21-.13.134-.194.327-.194.58v2.203c0 .059-.021.107-.064.145a.187.187 0 0 1-.138.056h-1.008Z"/><path fill="#ABABAB" d="M23.327 20.42c-.385 0-.703-.053-.957-.16a1.392 1.392 0 0 1-.576-.433 1 1 0 0 1-.208-.564.11.11 0 0 1 .035-.081.127.127 0 0 1 .092-.04h.726c.054 0 .094.01.121.028a.3.3 0 0 1 .08.075.71.71 0 0 0 .128.168c.057.053.13.097.219.132.092.03.205.046.34.046.222 0 .39-.035.5-.104.116-.069.174-.163.174-.282a.263.263 0 0 0-.092-.207.772.772 0 0 0-.3-.15 4.512 4.512 0 0 0-.542-.139 3.517 3.517 0 0 1-.749-.236c-.204-.1-.36-.228-.467-.386a1.057 1.057 0 0 1-.161-.6c0-.234.065-.443.196-.627.134-.185.32-.329.559-.433a2.11 2.11 0 0 1 .847-.155c.265 0 .497.034.697.104.204.069.375.16.513.276.139.115.242.238.311.369a.8.8 0 0 1 .116.375.13.13 0 0 1-.035.086.117.117 0 0 1-.086.035h-.761a.242.242 0 0 1-.11-.023.211.211 0 0 1-.08-.075.383.383 0 0 0-.185-.22.665.665 0 0 0-.38-.097.733.733 0 0 0-.398.092c-.092.058-.138.148-.138.27 0 .078.025.145.075.202.054.058.14.108.26.15.122.043.29.087.5.133.35.065.633.148.848.248.215.096.372.222.472.38.1.154.15.348.15.582 0 .261-.075.488-.225.68a1.37 1.37 0 0 1-.61.432c-.262.1-.561.15-.9.15Zm2.455-.057a.14.14 0 0 1-.104-.04.14.14 0 0 1-.04-.104v-3.745a.14.14 0 0 1 .04-.104.14.14 0 0 1 .104-.04h2.691a.14.14 0 0 1 .104.04.14.14 0 0 1 .04.104v.541a.14.14 0 0 1-.04.104.14.14 0 0 1-.104.04h-1.838v.778h1.711c.043 0 .077.016.104.046a.14.14 0 0 1 .04.104v.501a.153.153 0 0 1-.04.104.14.14 0 0 1-.104.04h-1.711v.802h1.884a.14.14 0 0 1 .104.04.14.14 0 0 1 .04.103v.542a.14.14 0 0 1-.04.104.14.14 0 0 1-.104.04h-2.737Zm5.157.058c-.366 0-.679-.06-.94-.179a1.39 1.39 0 0 1-.605-.524c-.142-.23-.22-.517-.236-.859a20.58 20.58 0 0 1 0-1.026c.015-.334.096-.616.242-.847.146-.234.35-.41.61-.53a2.16 2.16 0 0 1 .928-.184c.254 0 .488.033.704.098.215.061.403.153.564.276.162.12.286.265.375.438.092.17.14.361.144.577a.094.094 0 0 1-.035.086.117.117 0 0 1-.086.035h-.778a.196.196 0 0 1-.115-.03.27.27 0 0 1-.07-.12c-.053-.204-.142-.342-.265-.415a.803.803 0 0 0-.443-.115c-.212 0-.379.06-.502.178-.123.116-.19.31-.201.582-.012.315-.012.638 0 .968.011.273.078.47.201.588.123.116.29.173.502.173a.831.831 0 0 0 .45-.115c.122-.077.209-.215.259-.415.015-.058.036-.096.063-.115a.196.196 0 0 1 .12-.035h.779c.034 0 .063.012.086.035a.094.094 0 0 1 .035.086 1.267 1.267 0 0 1-.519 1.02c-.161.12-.35.211-.565.277a2.55 2.55 0 0 1-.702.092Zm4.08 0c-.346 0-.649-.056-.91-.167a1.31 1.31 0 0 1-.6-.525c-.142-.238-.213-.54-.213-.904v-2.351a.14.14 0 0 1 .04-.104.14.14 0 0 1 .104-.04h.744a.14.14 0 0 1 .103.04.14.14 0 0 1 .04.104v2.345c0 .25.06.438.18.565.122.123.293.184.512.184.215 0 .383-.061.502-.184.123-.127.184-.315.184-.565v-2.345a.14.14 0 0 1 .04-.104.153.153 0 0 1 .104-.04h.75c.038 0 .07.013.097.04.03.027.046.061.046.104v2.35c0 .366-.07.667-.213.905-.142.235-.342.41-.6.525a2.28 2.28 0 0 1-.91.167Zm2.632-.058a.14.14 0 0 1-.104-.04.14.14 0 0 1-.04-.104v-3.745a.14.14 0 0 1 .04-.104.14.14 0 0 1 .104-.04h1.567c.495 0 .885.115 1.17.345.288.227.432.55.432.968 0 .273-.067.504-.202.692-.13.188-.303.33-.518.426l.795 1.418a.144.144 0 0 1 .017.063c0 .031-.013.06-.04.087a.117.117 0 0 1-.087.034h-.76c-.073 0-.127-.017-.162-.052a.487.487 0 0 1-.075-.103l-.657-1.268h-.593v1.28a.14.14 0 0 1-.04.103.14.14 0 0 1-.104.04h-.743Zm.887-2.236h.668c.18 0 .315-.044.404-.132a.48.48 0 0 0 .138-.363c0-.15-.044-.271-.133-.363-.084-.092-.22-.138-.409-.138h-.668v.996Zm3.097 2.236a.14.14 0 0 1-.104-.04.14.14 0 0 1-.04-.104v-3.745a.14.14 0 0 1 .04-.104.14.14 0 0 1 .104-.04h2.69a.14.14 0 0 1 .105.04.14.14 0 0 1 .04.104v.541a.14.14 0 0 1-.04.104.14.14 0 0 1-.104.04h-1.838v.778h1.711c.042 0 .077.016.104.046a.14.14 0 0 1 .04.104v.501a.153.153 0 0 1-.04.104.14.14 0 0 1-.104.04h-1.711v.802h1.884a.14.14 0 0 1 .104.04.14.14 0 0 1 .04.103v.542a.14.14 0 0 1-.04.104.14.14 0 0 1-.104.04h-2.737Zm3.68 0a.14.14 0 0 1-.104-.04.14.14 0 0 1-.04-.104v-3.745a.14.14 0 0 1 .04-.104.14.14 0 0 1 .104-.04h1.498c.377 0 .698.061.963.184.265.119.468.296.61.53.143.23.22.517.231.859a20.046 20.046 0 0 1 0 .881c-.015.358-.092.653-.23.888a1.24 1.24 0 0 1-.594.524c-.257.112-.574.167-.95.167h-1.528Zm.888-.83h.61a.974.974 0 0 0 .41-.074.518.518 0 0 0 .247-.248c.058-.112.089-.258.093-.438.007-.112.011-.212.011-.3a3.005 3.005 0 0 0 0-.265c0-.088-.004-.186-.011-.294-.008-.261-.077-.451-.208-.57-.127-.123-.317-.185-.57-.185h-.582v2.375Z"/><path fill="#000" d="M3.021 31.3a.133.133 0 0 1-.098-.04.125.125 0 0 1-.035-.093v-3.826c0-.038.012-.07.035-.092a.133.133 0 0 1 .098-.04h.265c.038 0 .07.013.092.04.027.023.04.054.04.092v.254c.093-.127.216-.233.37-.317.153-.085.345-.127.576-.127.215 0 .397.036.547.11a.998.998 0 0 1 .375.3c.1.126.174.27.224.431.05.162.077.334.081.519a3.15 3.15 0 0 1 0 .392c-.004.18-.03.353-.08.518-.05.162-.125.306-.225.433-.096.123-.221.222-.375.3-.15.072-.332.109-.547.109-.223 0-.411-.04-.565-.121a1.223 1.223 0 0 1-.369-.311v1.336c0 .039-.011.07-.034.093a.122.122 0 0 1-.098.04H3.02Zm1.222-1.504c.2 0 .355-.042.466-.127a.733.733 0 0 0 .248-.34c.05-.142.079-.294.087-.455a4.85 4.85 0 0 0 0-.334 1.53 1.53 0 0 0-.087-.45.697.697 0 0 0-.248-.34c-.111-.088-.267-.132-.466-.132a.754.754 0 0 0-.461.132.815.815 0 0 0-.26.34 1.3 1.3 0 0 0-.092.415 3.578 3.578 0 0 0 0 .444c.004.134.035.267.092.397.062.131.152.239.271.323.12.085.27.127.45.127Zm3.3.467c-.292 0-.536-.056-.732-.167a1.129 1.129 0 0 1-.45-.461 1.617 1.617 0 0 1-.172-.68 4.364 4.364 0 0 1-.006-.248c0-.104.002-.187.006-.248.011-.257.069-.484.173-.68.107-.196.259-.35.455-.461.196-.111.438-.167.726-.167s.53.056.726.167c.196.111.346.265.45.461.107.196.167.423.178.68a4.364 4.364 0 0 1 0 .496c-.011.253-.07.48-.173.68-.104.195-.253.35-.45.46-.195.112-.44.168-.731.168Zm0-.444c.238 0 .428-.075.57-.225.143-.153.22-.376.23-.668a3.409 3.409 0 0 0 0-.438c-.01-.292-.087-.513-.23-.663a.74.74 0 0 0-.57-.23.758.758 0 0 0-.576.23c-.143.15-.217.37-.225.663a3.4 3.4 0 0 0-.006.219c0 .088.002.161.006.219.008.292.082.515.225.668.146.15.338.225.576.225Zm3.017.386a.22.22 0 0 1-.138-.04.3.3 0 0 1-.075-.104l-1.066-2.674a.154.154 0 0 1-.011-.057.117.117 0 0 1 .12-.121h.277c.043 0 .075.011.098.034a.134.134 0 0 1 .04.064l.882 2.27.876-2.27a.246.246 0 0 1 .04-.064.133.133 0 0 1 .098-.034h.283c.03 0 .057.011.08.034a.11.11 0 0 1 .04.087c0 .019-.003.038-.01.057l-1.072 2.674a.226.226 0 0 1-.075.104c-.031.027-.077.04-.139.04h-.248Zm3.234.058c-.396 0-.71-.121-.945-.363-.234-.246-.363-.58-.386-1.003a2.532 2.532 0 0 1-.006-.19c0-.08.002-.146.006-.196.015-.273.079-.511.19-.715a1.19 1.19 0 0 1 .455-.478c.196-.111.425-.167.686-.167.292 0 .536.061.732.184.2.123.352.298.455.525.104.226.156.492.156.795v.098a.122.122 0 0 1-.04.098.125.125 0 0 1-.093.035h-1.993V28.936c.007.158.042.306.103.444.062.134.15.244.265.328a.683.683 0 0 0 .415.127.831.831 0 0 0 .686-.322c.034-.05.061-.08.08-.087a.187.187 0 0 1 .093-.017h.276c.039 0 .07.011.093.034.027.02.038.048.034.087a.462.462 0 0 1-.092.213c-.058.08-.14.161-.248.242-.107.08-.238.148-.392.202-.153.05-.33.075-.53.075Zm-.784-1.775h1.58v-.017c0-.173-.033-.327-.098-.462a.742.742 0 0 0-.697-.438.742.742 0 0 0-.427.122.742.742 0 0 0-.265.316 1.097 1.097 0 0 0-.092.462v.017Zm2.949 1.717a.145.145 0 0 1-.098-.034.146.146 0 0 1-.035-.098v-2.726c0-.039.011-.071.034-.098a.133.133 0 0 1 .099-.04h.265c.038 0 .07.013.098.04.026.027.04.06.04.098v.253a.732.732 0 0 1 .317-.294c.134-.065.296-.098.484-.098h.23c.039 0 .07.014.092.04a.124.124 0 0 1 .035.093v.236c0 .039-.011.07-.035.093a.125.125 0 0 1-.092.034h-.345c-.208 0-.371.062-.49.184-.12.12-.179.283-.179.49v1.695a.133.133 0 0 1-.04.098.145.145 0 0 1-.098.034h-.282Zm3.193.058c-.396 0-.711-.121-.946-.363-.234-.246-.363-.58-.386-1.003a1.666 1.666 0 0 1 .19-1.1 1.19 1.19 0 0 1 .456-.479c.196-.111.424-.167.686-.167.292 0 .535.061.731.184.2.123.352.298.456.525.103.226.155.492.155.795v.098a.122.122 0 0 1-.04.098.125.125 0 0 1-.092.035h-1.994V28.936c.008.158.042.306.104.444.061.134.15.244.265.328a.682.682 0 0 0 .415.127.831.831 0 0 0 .685-.322c.035-.05.062-.08.081-.087a.187.187 0 0 1 .092-.017h.277c.038 0 .069.011.092.034.027.02.038.048.035.087a.462.462 0 0 1-.093.213c-.057.08-.14.161-.247.242-.108.08-.239.148-.392.202-.154.05-.33.075-.53.075Zm-.784-1.775h1.579v-.017c0-.173-.033-.327-.098-.462a.742.742 0 0 0-.697-.438.742.742 0 0 0-.427.122.742.742 0 0 0-.265.316 1.097 1.097 0 0 0-.092.462v.017Zm3.91 1.775c-.211 0-.394-.037-.547-.11a1.105 1.105 0 0 1-.38-.305 1.453 1.453 0 0 1-.22-.444 2.297 2.297 0 0 1-.08-.524 2.738 2.738 0 0 1 0-.346 2.28 2.28 0 0 1 .08-.519c.05-.165.123-.313.22-.443.1-.131.226-.233.38-.306a1.21 1.21 0 0 1 .547-.115c.227 0 .415.04.565.12.15.082.273.181.369.3v-1.325c0-.038.011-.069.034-.092a.133.133 0 0 1 .098-.04h.277c.038 0 .069.013.092.04.027.023.04.054.04.092v3.827a.133.133 0 0 1-.04.098.125.125 0 0 1-.092.034h-.26c-.042 0-.074-.011-.097-.034a.145.145 0 0 1-.035-.098v-.242c-.096.122-.22.226-.375.31a1.23 1.23 0 0 1-.576.122Zm.121-.467c.192 0 .346-.044.461-.133a.822.822 0 0 0 .26-.334c.057-.138.088-.278.092-.42a3.528 3.528 0 0 0 0-.444.993.993 0 0 0-.098-.398.741.741 0 0 0-.715-.45c-.196 0-.351.045-.467.133a.697.697 0 0 0-.247.34c-.05.139-.08.288-.087.45a4.9 4.9 0 0 0 0 .334c.008.161.037.313.087.455.05.139.132.252.247.34.116.085.271.127.467.127Zm5.105.467c-.23 0-.423-.04-.576-.121a1.136 1.136 0 0 1-.37-.311v.242a.133.133 0 0 1-.04.098.124.124 0 0 1-.092.034h-.265a.145.145 0 0 1-.098-.034.145.145 0 0 1-.034-.098v-3.827c0-.038.011-.069.034-.092a.133.133 0 0 1 .098-.04h.277c.042 0 .075.013.098.04a.125.125 0 0 1 .034.092v1.326c.096-.12.22-.22.37-.3.153-.08.341-.121.564-.121.215 0 .397.038.547.115a.976.976 0 0 1 .375.306c.1.13.175.278.225.443.05.165.076.338.08.519a2.812 2.812 0 0 1 0 .346c-.004.184-.03.359-.08.524-.05.165-.125.313-.225.444a1.05 1.05 0 0 1-.375.305c-.15.073-.332.11-.547.11Zm-.121-.467c.2 0 .355-.042.467-.127a.734.734 0 0 0 .247-.34c.05-.142.08-.294.087-.455a4.775 4.775 0 0 0 0-.334 1.533 1.533 0 0 0-.087-.45.697.697 0 0 0-.247-.34c-.112-.088-.267-.132-.467-.132-.18 0-.33.042-.45.127a.816.816 0 0 0-.27.322c-.058.13-.089.263-.093.398a3.722 3.722 0 0 0 0 .444c.008.142.039.282.093.42a.823.823 0 0 0 .259.334c.119.089.273.133.46.133Zm2.479 1.504a.11.11 0 0 1-.08-.035.11.11 0 0 1-.035-.08c0-.016.002-.031.006-.046a.293.293 0 0 1 .023-.058l.443-1.055-1.1-2.599a.306.306 0 0 1-.03-.097.118.118 0 0 1 .122-.121h.282c.039 0 .07.01.092.028.023.02.039.043.046.07l.876 2.097.9-2.098a.217.217 0 0 1 .045-.069.15.15 0 0 1 .098-.028h.271c.035 0 .064.011.087.034a.11.11 0 0 1 .034.08c0 .02-.01.055-.029.104l-1.636 3.775a.184.184 0 0 1-.052.07c-.02.018-.05.028-.092.028h-.271Z"/><path fill="#C20005" d="M34.867 30.263c-.211 0-.394-.037-.547-.11a1.105 1.105 0 0 1-.38-.305 1.45 1.45 0 0 1-.22-.444 2.303 2.303 0 0 1-.08-.524 2.738 2.738 0 0 1 0-.346c.007-.18.034-.354.08-.519a1.45 1.45 0 0 1 .22-.443c.099-.131.226-.233.38-.306a1.21 1.21 0 0 1 .547-.115c.227 0 .415.04.565.12.15.082.272.181.368.3v-1.325c0-.038.012-.069.035-.092a.133.133 0 0 1 .098-.04h.277c.038 0 .069.013.092.04.027.023.04.054.04.092v3.827a.133.133 0 0 1-.04.098.125.125 0 0 1-.092.034h-.26c-.042 0-.075-.011-.098-.034a.145.145 0 0 1-.034-.098v-.242c-.096.122-.221.226-.375.31-.154.081-.346.122-.576.122Zm.12-.467c.193 0 .347-.044.462-.133a.822.822 0 0 0 .26-.334c.057-.138.088-.278.091-.42a3.528 3.528 0 0 0 0-.444.993.993 0 0 0-.097-.398.741.741 0 0 0-.715-.45c-.196 0-.352.045-.467.133a.696.696 0 0 0-.248.34 1.53 1.53 0 0 0-.086.45 4.9 4.9 0 0 0 0 .334c.008.161.036.313.086.455.05.139.133.252.248.34.115.085.271.127.467.127Zm2.345.41a.145.145 0 0 1-.098-.035.146.146 0 0 1-.035-.098V27.34c0-.038.012-.07.035-.092a.134.134 0 0 1 .098-.04h.276c.039 0 .07.013.093.04a.125.125 0 0 1 .034.092v2.732a.146.146 0 0 1-.035.098.125.125 0 0 1-.092.034h-.276Zm-.046-3.556a.145.145 0 0 1-.098-.035.146.146 0 0 1-.035-.098v-.311c0-.039.012-.07.035-.092a.134.134 0 0 1 .098-.04h.363c.038 0 .069.013.092.04.027.023.04.053.04.092v.311a.133.133 0 0 1-.04.098.124.124 0 0 1-.092.035h-.363Zm2.536 4.823c-.261 0-.476-.035-.645-.104a1.154 1.154 0 0 1-.392-.253.981.981 0 0 1-.202-.294.807.807 0 0 1-.063-.23.116.116 0 0 1 .034-.099.147.147 0 0 1 .098-.04h.277c.035 0 .063.008.086.023.023.015.043.048.058.098.023.057.058.12.104.19a.536.536 0 0 0 .213.184c.096.054.23.081.403.081.181 0 .333-.025.456-.075a.496.496 0 0 0 .276-.253c.066-.12.098-.285.098-.496v-.392c-.092.12-.213.22-.363.3-.15.077-.338.115-.565.115-.215 0-.4-.036-.553-.11a1.105 1.105 0 0 1-.38-.305 1.453 1.453 0 0 1-.22-.444 2.286 2.286 0 0 1-.08-.518 4.408 4.408 0 0 1 0-.317c.008-.18.035-.354.08-.519.05-.165.124-.313.22-.443.1-.131.227-.233.38-.306.154-.077.338-.115.553-.115.23 0 .421.044.57.133.155.084.28.188.376.31v-.247c0-.039.011-.071.034-.098a.133.133 0 0 1 .098-.04h.265c.039 0 .071.013.098.04.027.027.04.06.04.098v2.795c0 .257-.044.486-.132.685a.977.977 0 0 1-.427.473c-.195.115-.46.173-.795.173Zm-.011-1.706a.739.739 0 0 0 .46-.132c.12-.089.206-.2.26-.335a1.11 1.11 0 0 0 .092-.409 2.838 2.838 0 0 0 0-.397 1.109 1.109 0 0 0-.092-.41.762.762 0 0 0-.26-.334.739.739 0 0 0-.46-.132c-.192 0-.346.044-.461.132a.696.696 0 0 0-.248.34 1.53 1.53 0 0 0-.087.45c-.003.1-.003.201 0 .305.008.162.037.313.087.455.05.139.132.252.248.34.115.085.269.127.46.127Zm2.355.438a.145.145 0 0 1-.098-.034.145.145 0 0 1-.035-.098V27.34c0-.038.012-.07.035-.092a.133.133 0 0 1 .098-.04h.276c.039 0 .07.013.093.04a.124.124 0 0 1 .034.092v2.732a.145.145 0 0 1-.035.098.124.124 0 0 1-.092.034h-.276Zm-.046-3.555a.145.145 0 0 1-.098-.035.145.145 0 0 1-.035-.098v-.311c0-.039.012-.07.035-.092a.133.133 0 0 1 .098-.04h.363c.038 0 .069.013.092.04.027.023.04.053.04.092v.311a.133.133 0 0 1-.04.098.125.125 0 0 1-.092.035h-.363Zm2.38 3.613c-.215 0-.4-.027-.553-.081a1.266 1.266 0 0 1-.375-.196 1.007 1.007 0 0 1-.219-.23.47.47 0 0 1-.075-.185c-.004-.042.01-.075.04-.098a.153.153 0 0 1 .093-.034h.253c.023 0 .04.003.052.011.015.004.035.02.058.046.05.054.105.108.167.162a.754.754 0 0 0 .225.132.976.976 0 0 0 .34.052.96.96 0 0 0 .484-.11.368.368 0 0 0 .19-.334.324.324 0 0 0-.08-.23c-.05-.058-.143-.11-.278-.156a4.685 4.685 0 0 0-.541-.144 2.07 2.07 0 0 1-.548-.196.753.753 0 0 1-.288-.282.802.802 0 0 1-.086-.375c0-.142.042-.278.127-.409a.935.935 0 0 1 .368-.328c.166-.085.371-.127.617-.127.2 0 .37.025.513.075a1.13 1.13 0 0 1 .559.409.432.432 0 0 1 .075.184.116.116 0 0 1-.035.098.137.137 0 0 1-.092.035h-.242a.131.131 0 0 1-.07-.017.426.426 0 0 1-.045-.04c-.039-.05-.085-.1-.139-.15a.541.541 0 0 0-.201-.122.832.832 0 0 0-.323-.051c-.192 0-.336.04-.432.12a.382.382 0 0 0-.144.306c0 .073.02.138.063.196.042.058.123.11.242.155.12.047.296.097.53.15.254.05.454.117.6.202.146.085.25.183.31.294.062.111.093.24.093.386 0 .161-.048.31-.144.444a.945.945 0 0 1-.415.323c-.18.076-.405.115-.674.115Zm3.093 0c-.396 0-.71-.121-.945-.363-.234-.246-.363-.58-.386-1.003a1.666 1.666 0 0 1 .19-1.1 1.19 1.19 0 0 1 .455-.479c.196-.111.425-.167.686-.167.292 0 .536.061.732.184.2.123.351.298.455.525.104.226.156.492.156.795v.098a.122.122 0 0 1-.04.098.125.125 0 0 1-.093.035H46.81V28.936c.008.158.043.306.104.444.062.134.15.244.265.328a.682.682 0 0 0 .415.127.83.83 0 0 0 .686-.322c.034-.05.061-.08.08-.087a.186.186 0 0 1 .093-.017h.276c.039 0 .07.011.092.034.027.02.039.048.035.087a.463.463 0 0 1-.092.213c-.058.08-.14.161-.248.242-.108.08-.238.148-.392.202-.154.05-.33.075-.53.075Zm-.784-1.775h1.58v-.017c0-.173-.034-.327-.099-.462a.742.742 0 0 0-.697-.438.742.742 0 0 0-.427.122.742.742 0 0 0-.264.316 1.097 1.097 0 0 0-.093.462v.017Zm2.948 1.717a.145.145 0 0 1-.098-.034.146.146 0 0 1-.034-.098v-2.726c0-.039.011-.071.034-.098a.134.134 0 0 1 .098-.04h.265c.039 0 .071.013.098.04.027.027.04.06.04.098v.253a.732.732 0 0 1 .318-.294 1.1 1.1 0 0 1 .484-.098h.23c.038 0 .07.014.092.04a.125.125 0 0 1 .035.093v.236c0 .039-.012.07-.035.093a.125.125 0 0 1-.092.034h-.346c-.207 0-.37.062-.49.184-.119.12-.178.283-.178.49v1.695a.133.133 0 0 1-.04.098.145.145 0 0 1-.098.034h-.283Zm3.227 0c-.216 0-.39-.04-.525-.12a.733.733 0 0 1-.294-.352 1.453 1.453 0 0 1-.092-.542V27.67h-.45a.146.146 0 0 1-.097-.035.146.146 0 0 1-.035-.098v-.196c0-.038.012-.07.035-.092a.134.134 0 0 1 .098-.04h.45v-.963c0-.038.01-.069.034-.092a.133.133 0 0 1 .098-.04h.27c.039 0 .07.013.093.04.027.023.04.054.04.092v.963h.715c.038 0 .069.013.092.04.027.023.04.054.04.092v.196a.134.134 0 0 1-.04.098.125.125 0 0 1-.092.035h-.715v1.48c0 .181.03.323.092.427.062.104.171.155.329.155h.351c.039 0 .07.014.092.04.027.024.04.055.04.093v.208a.133.133 0 0 1-.04.098.125.125 0 0 1-.092.034h-.397Z"/></svg>