<svg xmlns="http://www.w3.org/2000/svg" width="46" height="15" fill="none"><g clip-path="url(#a)"><path fill="#283B82" d="M5.9.861H2.4c-.24 0-.443.193-.48.455L.503 11.255c-.028.196.109.373.288.373h1.671c.24 0 .444-.193.48-.456l.383-2.68c.037-.262.24-.455.48-.455h1.108c2.305 0 3.636-1.236 3.984-3.684.156-1.071.006-1.913-.447-2.502-.497-.647-1.38-.99-2.551-.99Zm.404 3.63c-.192 1.391-1.151 1.391-2.08 1.391h-.527l.37-2.597c.022-.157.145-.273.288-.273h.242c.633 0 1.229 0 1.537.4.184.237.24.59.17 1.08ZM16.362 4.447h-1.676c-.143 0-.266.115-.288.272l-.074.52-.117-.189c-.363-.583-1.173-.778-1.98-.778-1.852 0-3.434 1.553-3.742 3.732-.16 1.087.067 2.127.624 2.852.51.666 1.242.944 2.111.944a3.096 3.096 0 0 0 2.32-1.063l-.075.516c-.028.197.11.374.288.374h1.51c.24 0 .443-.193.48-.455l.906-6.353c.029-.195-.108-.372-.287-.372Zm-2.336 3.612c-.162 1.06-.922 1.772-1.891 1.772-.487 0-.876-.173-1.126-.5-.247-.326-.341-.789-.263-1.304.151-1.052.924-1.787 1.878-1.787.477 0 .863.175 1.118.506.256.334.357.8.284 1.313ZM25.29 4.447h-1.685a.477.477 0 0 0-.403.236l-2.323 3.79-.985-3.642a.497.497 0 0 0-.466-.384h-1.655c-.202 0-.341.217-.277.427l1.855 6.029-1.744 2.726c-.137.215 0 .51.238.51h1.682c.16 0 .31-.086.4-.23l5.602-8.955c.134-.214-.004-.507-.24-.507Z"/><path fill="#469BDB" d="M30.865.861h-3.5c-.24 0-.443.193-.48.455l-1.416 9.939c-.028.196.109.373.288.373h1.796c.167 0 .31-.135.336-.319l.402-2.817c.036-.262.24-.455.48-.455h1.107c2.306 0 3.636-1.236 3.984-3.684.157-1.071.007-1.913-.446-2.502-.497-.647-1.38-.99-2.55-.99Zm.404 3.63c-.19 1.391-1.15 1.391-2.079 1.391h-.527l.37-2.597c.023-.157.144-.273.288-.273h.242c.632 0 1.229 0 1.537.4.183.237.24.59.17 1.08ZM41.327 4.447h-1.675c-.144 0-.266.115-.287.272l-.075.52-.117-.189c-.363-.583-1.172-.778-1.98-.778-1.852 0-3.433 1.553-3.741 3.732-.16 1.087.067 2.127.624 2.852.512.666 1.241.944 2.11.944 1.493 0 2.32-1.063 2.32-1.063l-.074.516c-.028.197.11.374.289.374h1.509c.239 0 .443-.193.48-.455l.907-6.353c.027-.195-.11-.372-.29-.372Zm-2.336 3.612c-.16 1.06-.922 1.772-1.891 1.772-.486 0-.876-.173-1.126-.5-.247-.326-.34-.789-.263-1.304.152-1.052.924-1.787 1.879-1.787.476 0 .862.175 1.117.506.257.334.358.8.284 1.313ZM43.304 1.134l-1.437 10.12c-.028.197.109.374.288.374h1.444c.24 0 .444-.193.48-.456l1.417-9.937c.028-.197-.109-.374-.288-.374h-1.617c-.143 0-.265.116-.287.273Z"/></g><defs><clipPath id="a"><path fill="#fff" d="M.5.86h45v13.28H.5z"/></clipPath></defs></svg>