<svg xmlns="http://www.w3.org/2000/svg" width="27" height="27" fill="none"><path fill="#1565C0" d="M24.875 19.458c0 1.197-.97 2.167-2.167 2.167H4.292a2.167 2.167 0 0 1-2.167-2.167V7.542c0-1.197.97-2.167 2.167-2.167h18.416c1.197 0 2.167.97 2.167 2.167v11.916Z"/><path fill="#fff" d="m8.726 10.792-1.422 4.242s-.362-1.795-.397-2.02c-.81-1.848-2.005-1.745-2.005-1.745L6.31 16.75v-.001h1.712l2.368-5.957H8.726Zm1.356 5.958h1.555l.94-5.958h-1.574l-.921 5.958Zm11.006-5.958h-1.636L16.9 16.75h1.545l.319-.851h1.948l.165.851h1.416l-1.205-5.958Zm-1.893 3.969.846-2.252.444 2.252h-1.29Zm-4.412-2.233c0-.328.27-.572 1.044-.572.502 0 1.078.365 1.078.365l.253-1.251s-.736-.279-1.458-.279c-1.635 0-2.479.782-2.479 1.772 0 1.791 2.156 1.546 2.156 2.465 0 .158-.126.523-1.023.523-.9 0-1.494-.33-1.494-.33l-.269 1.2s.576.328 1.689.328c1.115 0 2.662-.834 2.662-2.032 0-1.441-2.159-1.545-2.159-2.189Z"/><path fill="#FFC107" d="m7.115 14.012-.523-2.572s-.237-.557-.853-.557H3.334s3.067.905 3.78 3.129Z"/></svg>